<svg width="25" height="25" viewBox="0 0 25 25" fill="none" xmlns="http://www.w3.org/2000/svg">
<path fill-rule="evenodd" clip-rule="evenodd" d="M12.9952 -0.498125C13.0237 1.1293 13.3425 2.74588 13.9332 4.25933C14.5239 5.77277 15.3751 7.15343 16.4381 8.32249C17.5011 9.49155 18.7551 10.4261 20.1285 11.0728C21.5019 11.7195 22.9679 12.0656 24.4426 12.0915L24.4435 12.1441L24.4436 12.1441L24.4748 13.9253L24.4748 13.9253L24.4757 13.9778C23.0009 13.952 21.5463 14.2469 20.1947 14.8458C18.8431 15.4446 17.6212 16.3358 16.5986 17.4682C15.5759 18.6007 14.7727 19.9523 14.2347 21.446C13.6967 22.9396 13.4345 24.546 13.4631 26.1734L11.642 26.1415C11.5241 19.4191 15.5822 15.0307 21.1303 13.8666L0.724806 13.5087L0.693556 11.7274L21.0992 12.0854C15.5067 10.7259 11.292 6.19236 11.1741 -0.530074L12.9952 -0.498125Z" fill="white"/>
</svg>
