<svg width="25" height="25" viewBox="0 0 25 25" fill="none" xmlns="http://www.w3.org/2000/svg">
<path fill-rule="evenodd" clip-rule="evenodd" d="M12.1725 -0.498125C12.1439 1.1293 11.8252 2.74588 11.2345 4.25933C10.6437 5.77277 9.79256 7.15343 8.72956 8.32249C7.66657 9.49155 6.41257 10.4261 5.03916 11.0728C3.66574 11.7195 2.19981 12.0656 0.725065 12.0915L0.724143 12.1441L0.724105 12.1441L0.692855 13.9253L0.692893 13.9253L0.691972 13.9778C2.16672 13.952 3.6214 14.2469 4.97296 14.8458C6.32453 15.4446 7.5465 16.3358 8.56911 17.4682C9.59173 18.6007 10.395 19.9523 10.9329 21.446C11.4709 22.9396 11.7331 24.546 11.7046 26.1734L13.5257 26.1415C13.6436 19.4191 9.58549 15.0307 4.03736 13.8666L24.4429 13.5087L24.4741 11.7274L4.06847 12.0854C9.66095 10.7259 13.8756 6.19236 13.9936 -0.530074L12.1725 -0.498125Z" fill="#292D32"/>
</svg>
