<svg width="27" height="27" viewBox="0 0 27 27" fill="none" xmlns="http://www.w3.org/2000/svg">
<g clip-path="url(#clip0_58_73)">
<path fill-rule="evenodd" clip-rule="evenodd" d="M6.20372 5.54115C7.09203 6.42946 8.13019 7.15052 9.25893 7.66316C10.3877 8.1758 11.5849 8.46998 12.7822 8.52891C13.9795 8.58783 15.1535 8.41035 16.2372 8.0066C17.3208 7.60284 18.2929 6.98072 19.0978 6.17575L19.1265 6.20443L19.1265 6.20441L20.0988 7.17668L20.0988 7.1767L20.1274 7.20536C19.3225 8.01034 18.7004 8.98239 18.2966 10.066C17.8928 11.1497 17.7154 12.3237 17.7743 13.521C17.8332 14.7183 18.1274 15.9155 18.64 17.0443C19.1527 18.173 19.8737 19.2112 20.762 20.0995L19.768 21.0935C16.0987 17.4242 15.9215 12.7314 18.2732 9.00223L7.13518 20.1403L6.16291 19.168L17.3011 8.02989C13.5719 10.3817 8.87906 10.2045 5.20971 6.53517L6.20372 5.54115Z" fill="white"/>
</g>
<defs>
<clipPath id="clip0_58_73">
<rect width="18.3333" height="18.3333" fill="white" transform="translate(0.166748 13.1719) rotate(-45)"/>
</clipPath>
</defs>
</svg>
