<svg width="18" height="18" viewBox="0 0 18 18" fill="none" xmlns="http://www.w3.org/2000/svg">
<g clip-path="url(#clip0_58_1018)">
<path d="M15.3587 2.63714C15.209 2.48934 14.968 2.49011 14.8191 2.63886L6.53017 10.9278C6.29719 11.1609 5.94555 11.1608 5.71468 10.9299L4.48952 9.6856C4.34099 9.53496 4.09862 9.53323 3.94798 9.68159C3.79733 9.82977 3.7954 10.0723 3.94376 10.223L5.1712 11.4694C5.70396 12.0021 6.53895 12.0021 7.07171 11.4694L15.0854 3.45571C16.4738 4.96015 17.234 6.91311 17.234 8.99724C17.234 11.2471 16.3409 13.3482 14.7195 14.914C13.0912 16.4862 10.9441 17.3049 8.67283 17.2289C4.40663 17.0641 0.935622 13.5931 0.770809 9.32824C0.691181 7.05673 1.51338 4.90868 3.08577 3.28039C4.65149 1.65877 6.75281 0.765772 9.00249 0.765772C9.21381 0.765772 9.38534 0.594245 9.38534 0.382921C9.38534 0.171597 9.21381 0 9.00249 0C6.54317 0 4.24621 0.976112 2.53481 2.74837C0.816724 4.52752 -0.0814467 6.87388 0.0054594 9.35654C0.185775 14.0198 3.97994 17.8139 8.6447 17.9942C8.75457 17.9979 8.86408 18 8.97338 18C11.3324 17.9998 13.5509 17.1068 15.2513 15.4649C17.0236 13.7537 17.9997 11.4567 17.9997 8.99721C17.9997 6.57811 17.0619 4.31943 15.3587 2.63714Z" fill="black"/>
</g>
<defs>
<clipPath id="clip0_58_1018">
<rect width="18" height="18" fill="white" transform="translate(-0.000305176)"/>
</clipPath>
</defs>
</svg>
