<svg width="71" height="71" viewBox="0 0 71 71" fill="none" xmlns="http://www.w3.org/2000/svg">
<g clip-path="url(#clip0_58_872)">
<path d="M46.8918 40.043C46.4562 39.5682 45.7184 39.5362 45.2433 39.9717C44.7684 40.4071 44.7363 41.1452 45.1719 41.6202C48.824 45.6027 56.7822 55.9098 51.8154 65.5825C50.9968 67.1765 49.4982 68.1667 47.9046 68.1667H23.973C22.3794 68.1667 20.8809 67.1765 20.0625 65.5825C18.7356 62.9986 18.2619 60.1409 18.5959 57.1382C24.0082 55.4595 27.5051 59.5068 34.8484 52.4203C35.5084 51.7832 36.3614 51.7833 37.0212 52.4202C40.919 56.1816 43.7986 56.8939 46.9224 56.8096C47.5664 56.792 48.0742 56.2554 48.0565 55.6113C48.0389 54.9671 47.5066 54.4602 46.8582 54.4771C44.7194 54.5369 42.3245 54.2954 38.6415 50.7412C37.0732 49.2276 34.7965 49.2277 33.228 50.7413C27.0774 56.6769 24.5566 53.4716 19.0586 54.6112C20.3399 49.5538 23.7769 44.2006 29.172 39.125C30.015 38.3319 30.5374 37.2 30.6434 35.9672C32.9011 37.5561 34.645 38.9102 34.7729 41.868V45.4638C34.7729 46.1081 35.2952 46.6304 35.9395 46.6304C36.5838 46.6304 37.1062 46.1081 37.1062 45.4638V41.868C37.2863 37.7067 40.7116 36.6836 43.9474 33.954C44.1012 33.8242 44.1167 33.7516 44.3045 33.5747C52.5842 25.7853 59.0413 14.3811 53.8909 4.3516C52.671 1.97583 50.3773 0.5 47.9046 0.5H23.973C21.5004 0.5 19.2068 1.97583 17.9867 4.3516C15.7536 8.7005 15.5433 13.5648 17.362 18.8091C17.5699 19.4083 18.2183 19.7319 18.822 19.5372C24.9368 17.5669 29.5043 18.2338 33.4895 19.1212C33.9639 19.2286 33.9884 19.2314 35.0787 19.4876C35.7063 19.6355 36.3339 19.246 36.4813 18.6186C36.5812 18.1929 36.4338 17.7674 36.1328 17.4915C39.7147 14.7253 43.8333 13.3526 48.163 13.5073C48.8081 13.5231 49.3474 13.0268 49.3703 12.3829C49.3932 11.7389 48.8898 11.1983 48.2458 11.1754C42.8267 10.9829 37.7113 12.8969 33.4128 16.717C29.616 15.9095 25.0464 15.339 19.226 16.9781C18.0011 12.7707 18.281 8.88629 20.0622 5.4175C20.8809 3.82354 22.3795 2.83333 23.973 2.83333H47.9046C49.4982 2.83333 50.9967 3.82354 51.8152 5.4175C53.0806 7.88165 53.57 10.595 53.323 13.4455C49.3168 17.0031 45.8842 18.4619 41.926 18.3081C41.2871 18.2828 40.7399 18.7849 40.715 19.4289C40.69 20.0727 41.1919 20.6149 41.8357 20.6399C45.9201 20.7968 49.3387 19.4362 52.6555 16.9926C51.2611 21.871 47.8869 27.0011 42.7058 31.8753C42.2965 32.2605 42.5921 32.1661 40.2238 33.8267C38.6274 34.9458 36.9974 36.0886 35.9394 37.7966C34.8814 36.0886 33.2514 34.9458 31.6551 33.8267C29.342 32.2047 29.5166 32.1995 29.172 31.8753C26.7886 29.6333 24.7365 27.2623 23.0728 24.8286C22.7091 24.2969 21.9831 24.1606 21.4513 24.5239C20.9194 24.8876 20.7829 25.6135 21.1465 26.1454C22.9051 28.718 25.0674 31.2175 27.5732 33.5749C28.5849 34.5264 28.5849 36.4737 27.5732 37.4254C19.3536 45.1581 12.8141 56.575 17.9869 66.6484C19.2068 69.0242 21.5006 70.5 23.973 70.5H47.9046C50.3772 70.5 52.671 69.0242 53.8909 66.6484C57.86 58.9191 55.3088 49.2219 46.8918 40.043Z" fill="#292D32"/>
</g>
<defs>
<clipPath id="clip0_58_872">
<rect width="70" height="70" fill="white" transform="translate(0.93457 0.5)"/>
</clipPath>
</defs>
</svg>
