<svg width="124" height="123" viewBox="0 0 124 123" fill="none" xmlns="http://www.w3.org/2000/svg">
<g clip-path="url(#clip0_58_983)">
<path d="M97.6633 46.1444C97.5676 46.1041 97.4666 46.0727 97.363 46.0467C89.1392 43.3863 79.8637 43.5743 71.3709 47.13C70.3313 47.5652 69.8412 48.7609 70.2765 49.8008C70.7119 50.8407 71.9074 51.33 72.9476 50.8953C79.9341 47.9703 87.5406 47.6012 94.4414 49.4396C91.72 59.7904 84.1906 68.0252 74.5916 71.9087C69.1794 51.988 48.7367 40.3187 29.002 45.425C26.272 25.2583 42.0189 7.49699 62.1182 7.49699C78.7511 7.49699 92.9864 19.9038 95.2307 36.3564C95.3833 37.4731 96.4132 38.2558 97.5289 38.1027C98.6458 37.9504 99.4275 36.9215 99.2754 35.8046C96.7727 17.459 81.0367 3.41504 62.1182 3.41504C39.2796 3.41504 21.516 23.8337 25.0589 46.686C10.9432 52.0734 0.888855 65.7523 0.888855 81.7375C0.888855 102.417 17.7126 119.24 38.3918 119.24C47.0665 119.24 55.4452 116.24 62.1309 110.769C68.5975 116.061 76.8563 119.24 85.8445 119.24C106.524 119.24 123.347 102.417 123.347 81.7375C123.347 65.1862 112.569 51.1065 97.6633 46.1444ZM70.713 73.2088C65.0225 74.7326 59.085 74.6961 53.5338 73.2195C55.0217 67.5935 57.9635 62.3993 62.1051 58.2147C66.1606 62.2893 69.1891 67.4185 70.713 73.2088ZM59.0521 55.4992C54.5474 60.1042 51.3267 65.7807 49.6554 71.9268C39.958 68.0153 32.5023 59.6822 29.7993 49.4383C39.6368 46.819 50.4966 48.7673 59.0521 55.4992ZM4.97081 81.7375C4.97081 67.7155 13.6518 55.6847 25.9207 50.732C29.0714 62.3411 37.6703 71.7296 48.7913 75.9718C47.0162 87.3193 50.5083 99.2228 59.0572 107.955C53.3238 112.476 46.1128 115.159 38.3918 115.159C19.9636 115.159 4.97081 100.166 4.97081 81.7375ZM85.8445 115.159C78.0487 115.159 70.8681 112.475 65.1768 107.984C70.7757 102.27 74.4219 94.9102 75.5315 86.9757C75.6876 85.8593 74.9092 84.8278 73.7928 84.6717C72.6784 84.515 71.6452 85.2942 71.489 86.4103C70.464 93.7413 67.0492 100.265 62.1054 105.238C54.753 97.8112 51.3273 87.4977 52.7325 77.2316C72.4848 82.3401 92.9175 70.6527 98.3218 50.7346C110.587 55.6888 119.266 67.7178 119.266 81.7375C119.266 100.166 104.273 115.159 85.8445 115.159Z" fill="black"/>
</g>
<defs>
<clipPath id="clip0_58_983">
<rect width="122.459" height="122.459" fill="white" transform="translate(0.888855 0.0976562)"/>
</clipPath>
</defs>
</svg>
