<svg xmlns="http://www.w3.org/2000/svg" width="83" height="82" viewBox="0 0 83 82" fill="none">
    <g clip-path="url(#clip0_58_575)">
      <path d="M16.0458 75.4228C16.0458 76.1775 15.4339 76.7895 14.6792 76.7895H1.86667C1.11192 76.7895 0.5 76.1775 0.5 75.4228C0.5 74.668 1.11192 74.0561 1.86667 74.0561H14.6792C15.4339 74.0561 16.0458 74.668 16.0458 75.4228ZM32.275 15.1186C37.55 15.1186 41.8417 19.4103 41.8417 24.6853V27.0769C41.8417 27.8317 41.2297 28.4436 40.475 28.4436H24.075C23.3203 28.4436 22.7083 27.8317 22.7083 27.0769V24.6853C22.7083 19.4103 27 15.1186 32.275 15.1186ZM25.4417 24.6853V25.7103H39.1083V24.6853C39.1083 20.9174 36.0429 17.8519 32.275 17.8519C28.5071 17.8519 25.4417 20.9174 25.4417 24.6853ZM11.8604 71.3228C12.6152 71.3228 13.2281 70.7107 13.2271 69.9542L13.1553 16.5389C13.149 11.7901 16.99 7.94361 21.7392 7.94361H22.3246C25.0648 7.94361 27.5762 9.20607 29.2149 11.4073C29.6655 12.0125 30.5217 12.1381 31.1272 11.6874C31.7326 11.2368 31.858 10.3805 31.4073 9.77512C29.2794 6.9169 25.884 5.21045 22.3246 5.21045H21.7392C15.4783 5.21045 10.4136 10.2813 10.422 16.5427L10.4937 69.958C10.4948 70.7121 11.1064 71.3228 11.8604 71.3228ZM76.35 52.702V43.7908C76.35 39.7557 73.0671 36.4728 69.032 36.4728H31.7347C27.6996 36.4728 24.4167 39.7557 24.4167 43.7908V47.0644C24.4167 47.8192 25.0286 48.4311 25.7833 48.4311C26.5381 48.4311 27.15 47.8192 27.15 47.0644V43.7908C27.15 41.2628 29.2067 39.2061 31.7347 39.2061H49.1875V54.5811C49.1875 55.3359 49.7994 55.9478 50.5542 55.9478C51.3089 55.9478 51.9208 55.3359 51.9208 54.5811V39.2061H69.032C71.56 39.2061 73.6167 41.2628 73.6167 43.7908V52.7382C70.5476 53.0689 68.15 55.6741 68.15 58.8297V60.0478C68.15 60.8025 68.7619 61.4144 69.5167 61.4144C70.2714 61.4144 70.8833 60.8025 70.8833 60.0478V58.8297C70.8833 56.9581 72.406 55.4353 74.2776 55.4353H76.3724C78.244 55.4353 79.7667 56.9581 79.7667 58.8297V70.6618C79.7667 72.5335 78.244 74.0563 76.3724 74.0563H70.8833C70.8833 65.1115 70.89 65.6619 70.8715 65.5146C70.9758 64.6801 70.3232 63.9771 69.5167 63.9771H38.9375C38.1828 63.9771 37.5708 64.589 37.5708 65.3438C37.5708 66.0985 38.1828 66.7105 38.9375 66.7105H68.15V75.423C68.15 76.1777 68.7619 76.7896 69.5167 76.7896H76.3724C79.7511 76.7896 82.5 74.0407 82.5 70.6618V58.8297C82.5 55.4951 79.8044 52.702 76.35 52.702ZM62.5125 74.0561C61.2767 74.0561 26.6771 74.0561 24.7361 74.0561C22.8645 74.0561 21.3417 72.5333 21.3417 70.6617V58.8297C21.3417 56.9581 22.8645 55.4353 24.7361 55.4353H26.8307C28.7024 55.4353 30.2252 56.9581 30.2252 58.8297V66.5394C30.2252 67.2942 30.8371 67.9061 31.5918 67.9061C32.3466 67.9061 32.9585 67.2942 32.9585 66.5394V58.8297C32.9585 55.4508 30.2096 52.702 26.8307 52.702H24.7361C21.3572 52.702 18.6083 55.4508 18.6083 58.8297V70.6618C18.6083 74.0407 21.3572 76.7896 24.7361 76.7896H62.5125C63.2672 76.7896 63.8792 76.1777 63.8792 75.423C63.8792 74.6682 63.2672 74.0561 62.5125 74.0561Z" fill="black"/>
    </g>
    <defs>
      <clipPath id="clip0_58_575">
        <rect width="82" height="82" fill="white" transform="translate(0.5)"/>
      </clipPath>
    </defs>
  </svg>