<svg width="123" height="123" viewBox="0 0 123 123" fill="none" xmlns="http://www.w3.org/2000/svg">
<g clip-path="url(#clip0_58_975)">
<path d="M108.235 94.2377H100.836C96.1939 94.2377 92.4171 90.4609 92.4171 85.8187V80.7162C92.4171 76.074 96.1939 72.2972 100.836 72.2972C105.478 72.2972 109.255 76.074 109.255 80.7162V85.8187C109.255 86.9458 110.169 87.8597 111.296 87.8597C112.423 87.8597 113.337 86.9458 113.337 85.8187V80.7162C113.337 73.8231 107.729 68.2153 100.836 68.2153C93.943 68.2153 88.3352 73.8231 88.3352 80.7162C88.6801 83.7938 87.0259 89.3172 91.6887 94.327C87.1621 94.827 83.2664 97.4489 81.0216 101.175C78.5196 97.0219 73.9672 94.238 68.7757 94.238H61.2922C56.65 94.238 52.8732 90.4611 52.8732 85.8189V80.7165C52.8732 76.0743 56.65 72.2975 61.2922 72.2975C65.9344 72.2975 69.7112 76.0743 69.7112 80.7165V85.8189C69.7112 86.9461 70.6251 87.8599 71.7522 87.8599C72.8793 87.8599 73.7932 86.9461 73.7932 85.8189V80.7165C73.7932 76.0827 71.2568 72.0326 67.5016 69.8736C69.2158 68.6393 71.2825 67.9604 73.4531 67.9604H80.9366C87.8298 67.9604 93.4376 62.3526 93.4376 55.4594V50.357C93.4376 44.1174 88.8423 38.9313 82.8585 38.004C81.8084 31.7496 76.7493 26.9411 70.4312 26.2181C75.1022 21.209 73.4521 15.6369 73.7932 12.5986C73.7932 5.7055 68.1854 0.0976563 61.2922 0.0976563C54.3991 0.0976563 48.7912 5.7055 48.7912 12.5986C49.1387 15.6938 47.4743 21.2003 52.153 26.2178C50.0908 26.4574 48.1032 27.1406 46.329 28.2325C45.369 28.8234 45.0698 30.0806 45.6606 31.0404C46.2512 32.0004 47.5087 32.2999 48.4685 31.7088C50.0699 30.723 51.9165 30.2021 53.8085 30.2021H68.7757C73.6075 30.2021 77.6529 33.5261 78.7102 38.0583C72.8763 39.1119 68.4356 44.2238 68.4356 50.3567C68.7831 53.4526 67.1192 58.9571 71.7956 63.9741C68.4634 64.3581 65.3966 65.8967 63.0824 68.3456C55.5249 67.256 48.7912 73.136 48.7912 80.7162C49.1387 83.8109 47.4738 89.319 52.154 94.3364C47.6598 94.8574 43.7947 97.4696 41.5626 101.174C39.0606 97.0216 34.5082 94.2377 29.3167 94.2377H21.7483C17.1061 94.2377 13.3293 90.4609 13.3293 85.8187V80.7162C13.3293 76.074 17.1061 72.2972 21.7483 72.2972C26.3905 72.2972 30.1673 76.074 30.1673 80.7162V85.8187C30.1673 86.9458 31.0812 87.8597 32.2083 87.8597C33.3354 87.8597 34.2493 86.9458 34.2493 85.8187V80.7162C34.2493 76.1016 31.734 72.0661 28.0044 69.9003C29.7252 68.6487 31.8052 67.9601 33.9942 67.9601H41.3927C48.2858 67.9601 53.8937 62.3523 53.8937 55.4592V50.3567C53.8937 44.1478 49.3431 38.9839 43.4023 38.0195C42.354 31.7323 37.2551 26.9021 30.8965 26.2086C35.556 21.2014 33.9079 15.6448 34.2493 12.5986C34.2493 5.7055 28.6414 0.0976562 21.7483 0.0976562C14.8551 0.0976562 9.24731 5.7055 9.24731 12.5986C9.59529 15.6892 7.92705 21.2088 12.6195 26.2285C5.55518 27.086 0.062912 33.115 0.062912 40.4069V52.3977C0.062912 53.5248 0.976759 54.4387 2.10389 54.4387C3.23102 54.4387 4.14487 53.5248 4.14487 52.3977V40.4069C4.14487 34.78 8.72278 30.2021 14.3497 30.2021H29.317C34.1437 30.2021 38.1858 33.5189 39.2484 38.0435C33.374 39.064 28.8917 44.195 28.8917 50.3567C29.24 53.4516 27.5722 58.9648 32.2614 63.9843C28.9514 64.3826 25.9116 65.9181 23.614 68.3551C16.0236 67.2144 9.24731 73.1169 9.24731 80.7162C9.59529 83.8065 7.92705 89.3263 12.6195 94.3461C5.55518 95.2036 0.062912 101.233 0.062912 108.525V120.515C0.062912 121.642 0.976759 122.556 2.10389 122.556C3.23102 122.556 4.14487 121.642 4.14487 120.515V108.525C4.14487 102.898 8.72278 98.3197 14.3497 98.3197H29.317C34.944 98.3197 39.5219 102.898 39.5219 108.525V120.515C39.5219 121.642 40.4357 122.556 41.5629 122.556C42.69 122.556 43.6038 121.642 43.6038 120.515V108.525C43.6038 102.898 48.1817 98.3197 53.8087 98.3197H68.776C74.4029 98.3197 78.9809 102.898 78.9809 108.525V120.515C78.9809 121.642 79.8947 122.556 81.0218 122.556C82.149 122.556 83.0628 121.642 83.0628 120.515V108.525C83.0628 102.898 87.6407 98.3197 93.2677 98.3197H108.235C113.862 98.3197 118.44 102.898 118.44 108.525V120.515C118.44 121.642 119.353 122.556 120.481 122.556C121.608 122.556 122.522 121.642 122.522 120.515V108.525C122.522 100.647 116.112 94.2377 108.235 94.2377ZM52.8732 12.5986C52.8732 7.95644 56.65 4.17961 61.2922 4.17961C65.9344 4.17961 69.7112 7.95644 69.7112 12.5986V17.7011C69.7112 22.3433 65.9344 26.1201 61.2922 26.1201C56.65 26.1201 52.8732 22.3433 52.8732 17.7011V12.5986ZM72.5176 50.3567C72.5176 45.7145 76.2944 41.9377 80.9366 41.9377C85.5788 41.9377 89.3556 45.7145 89.3556 50.3567V55.4592C89.3556 60.1014 85.5788 63.8782 80.9366 63.8782C76.2944 63.8782 72.5176 60.1014 72.5176 55.4592V50.3567ZM13.3293 12.5986C13.3293 7.95644 17.1061 4.17961 21.7483 4.17961C26.3905 4.17961 30.1673 7.95644 30.1673 12.5986V17.7011C30.1673 22.3433 26.3905 26.1201 21.7483 26.1201C17.1061 26.1201 13.3293 22.3433 13.3293 17.7011V12.5986ZM32.9737 50.3567C32.9737 45.7145 36.7505 41.9377 41.3927 41.9377C46.0349 41.9377 49.8117 45.7145 49.8117 50.3567V55.4592C49.8117 60.1014 46.0349 63.8782 41.3927 63.8782C36.7505 63.8782 32.9737 60.1014 32.9737 55.4592V50.3567ZM109.965 26.2285C114.649 21.2172 112.996 15.6336 113.337 12.5986C113.337 5.7055 107.729 0.0976563 100.836 0.0976563C93.943 0.0976563 88.3352 5.7055 88.3352 12.5986C88.6826 15.7007 87.021 21.1917 91.6864 26.2069C90.06 26.3844 88.4923 26.837 87.009 27.5608C85.9959 28.0552 85.5755 29.277 86.0699 30.2901C86.5644 31.3034 87.7861 31.7241 88.7992 31.2292C91.604 29.8605 92.2378 30.2021 108.235 30.2021C113.862 30.2021 118.44 34.78 118.44 40.4069V52.3977C118.44 53.5248 119.353 54.4387 120.481 54.4387C121.608 54.4387 122.522 53.5248 122.522 52.3977V40.4069C122.522 33.115 117.029 27.086 109.965 26.2285ZM92.4171 12.5986C92.4171 7.95644 96.1939 4.17961 100.836 4.17961C105.478 4.17961 109.255 7.95644 109.255 12.5986V17.7011C109.255 22.3433 105.478 26.1201 100.836 26.1201C96.1939 26.1201 92.4171 22.3433 92.4171 17.7011V12.5986Z" fill="black"/>
</g>
<defs>
<clipPath id="clip0_58_975">
<rect width="122.459" height="122.459" fill="white" transform="translate(0.062912 0.0976562)"/>
</clipPath>
</defs>
</svg>
