<svg width="123" height="123" viewBox="0 0 123 123" fill="none" xmlns="http://www.w3.org/2000/svg">
<rect width="123" height="123" fill="#D9D9D9"/>
<g id="Homepage" clip-path="url(#clip0_58_2)">
<rect width="1920" height="19709" transform="translate(-294 -1470)" fill="#F5F0EB"/>
<g id="Frame 18">
<g id="Frame 14">
<rect x="-229" y="-91" width="568.984" height="543.597" rx="37.3349" fill="#D1DDE6"/>
<g id="Frame 13">
<g id="fi_2992290" clip-path="url(#clip1_58_2)">
<path id="Vector" d="M23.452 112.734C23.452 113.861 22.5382 114.775 21.411 114.775H2.27688C1.14975 114.775 0.235901 113.861 0.235901 112.734C0.235901 111.607 1.14975 110.693 2.27688 110.693H21.411C22.5382 110.693 23.452 111.607 23.452 112.734ZM47.6886 22.6757C55.5663 22.6757 61.9754 29.0849 61.9754 36.9626V40.5343C61.9754 41.6614 61.0616 42.5753 59.9345 42.5753H35.4427C34.3156 42.5753 33.4018 41.6614 33.4018 40.5343V36.9626C33.4018 29.0849 39.811 22.6757 47.6886 22.6757ZM37.4837 36.9626V38.4933H57.8935V36.9626C57.8935 31.3356 53.3156 26.7577 47.6886 26.7577C42.0616 26.7577 37.4837 31.3356 37.4837 36.9626ZM17.2015 106.611C18.3286 106.611 19.244 105.697 19.2425 104.567L19.1353 24.7968C19.1259 17.7049 24.8621 11.9606 31.9545 11.9606H32.8288C36.9209 11.9606 40.6715 13.846 43.1186 17.1332C43.7916 18.0371 45.0703 18.2246 45.9744 17.5516C46.8786 16.8786 47.0659 15.5999 46.3928 14.6958C43.215 10.4273 38.1442 7.87891 32.8288 7.87891H31.9545C22.6045 7.87891 15.0409 15.4517 15.0534 24.8024L15.1605 104.573C15.1621 105.699 16.0754 106.611 17.2015 106.611ZM113.51 78.8026V65.4947C113.51 59.4687 108.607 54.566 102.581 54.566H46.8817C40.8557 54.566 35.953 59.4687 35.953 65.4947V70.3836C35.953 71.5107 36.8668 72.4245 37.994 72.4245C39.1211 72.4245 40.0349 71.5107 40.0349 70.3836V65.4947C40.0349 61.7194 43.1064 58.6479 46.8817 58.6479H72.9457V81.6089C72.9457 82.7361 73.8595 83.6499 74.9867 83.6499C76.1138 83.6499 77.0276 82.7361 77.0276 81.6089V58.6479H102.581C106.357 58.6479 109.428 61.7194 109.428 65.4947V78.8567C104.845 79.3506 101.264 83.2412 101.264 87.9538V89.7728C101.264 90.9 102.178 91.8138 103.305 91.8138C104.432 91.8138 105.346 90.9 105.346 89.7728V87.9538C105.346 85.1587 107.62 82.8845 110.415 82.8845H113.544C116.339 82.8845 118.613 85.1587 118.613 87.9538V105.624C118.613 108.419 116.339 110.693 113.544 110.693H105.346C105.346 97.3349 105.356 98.1569 105.329 97.937C105.484 96.6907 104.51 95.6409 103.305 95.6409H57.6384C56.5112 95.6409 55.5974 96.5548 55.5974 97.6819C55.5974 98.809 56.5112 99.7229 57.6384 99.7229H101.264V112.734C101.264 113.861 102.178 114.775 103.305 114.775H113.544C118.589 114.775 122.695 110.67 122.695 105.624V87.9538C122.695 82.9738 118.669 78.8026 113.51 78.8026ZM92.8452 110.693C90.9997 110.693 39.3288 110.693 36.4301 110.693C33.635 110.693 31.3608 108.419 31.3608 105.624V87.9538C31.3608 85.1587 33.635 82.8845 36.4301 82.8845H39.5581C42.3532 82.8845 44.6274 85.1587 44.6274 87.9538V99.4675C44.6274 100.595 45.5412 101.508 46.6684 101.508C47.7955 101.508 48.7094 100.595 48.7094 99.4675V87.9538C48.7094 82.9078 44.6042 78.8026 39.5581 78.8026H36.4301C31.384 78.8026 27.2788 82.9078 27.2788 87.9538V105.624C27.2788 110.67 31.384 114.775 36.4301 114.775H92.8452C93.9724 114.775 94.8862 113.861 94.8862 112.734C94.8862 111.607 93.9724 110.693 92.8452 110.693Z" fill="black"/>
</g>
</g>
</g>
</g>
</g>
<defs>
<clipPath id="clip0_58_2">
<rect width="1920" height="19709" fill="white" transform="translate(-294 -1470)"/>
</clipPath>
<clipPath id="clip1_58_2">
<rect width="122.459" height="122.459" fill="white" transform="translate(0.236023 0.0976562)"/>
</clipPath>
</defs>
</svg>
