
<svg xmlns="http://www.w3.org/2000/svg" width="37" height="36" viewBox="0 0 37 36" fill="none">
    <g clip-path="url(#clip0_58_754)">
      <path d="M7.325 33.112C7.325 33.4434 7.05635 33.712 6.725 33.712H1.1C0.76865 33.712 0.5 33.4434 0.5 33.112C0.5 32.7807 0.76865 32.512 1.1 32.512H6.725C7.05635 32.512 7.325 32.7807 7.325 33.112ZM14.45 6.63703C16.7659 6.63703 18.65 8.52118 18.65 10.837V11.887C18.65 12.2184 18.3814 12.487 18.05 12.487H10.85C10.5187 12.487 10.25 12.2184 10.25 11.887V10.837C10.25 8.52118 12.1342 6.63703 14.45 6.63703ZM11.45 10.837V11.287H17.45V10.837C17.45 9.18283 16.1042 7.83703 14.45 7.83703C12.7958 7.83703 11.45 9.18283 11.45 10.837ZM5.4875 31.312C5.81885 31.312 6.08795 31.0433 6.0875 30.7112L6.056 7.26058C6.05323 5.17573 7.73953 3.48703 9.82453 3.48703H10.0816C11.2846 3.48703 12.3871 4.04128 13.1065 5.00766C13.3044 5.27338 13.6803 5.32851 13.9461 5.13066C14.2119 4.93281 14.2669 4.55691 14.0691 4.29111C13.1349 3.03628 11.6442 2.28711 10.0816 2.28711H9.82453C7.07585 2.28711 4.85233 4.51333 4.856 7.26223L4.8875 30.7129C4.88795 31.0439 5.15645 31.312 5.4875 31.312ZM33.8 23.137V19.2248C33.8 17.4533 32.3587 16.012 30.5872 16.012H14.2128C12.4413 16.012 11 17.4533 11 19.2248V20.662C11 20.9934 11.2687 21.262 11.6 21.262C11.9314 21.262 12.2 20.9934 12.2 20.662V19.2248C12.2 18.115 13.1029 17.212 14.2128 17.212H21.875V23.962C21.875 24.2934 22.1437 24.562 22.475 24.562C22.8064 24.562 23.075 24.2934 23.075 23.962V17.212H30.5872C31.6971 17.212 32.6 18.115 32.6 19.2248V23.1529C31.2526 23.2981 30.2 24.4419 30.2 25.8273V26.362C30.2 26.6934 30.4687 26.962 30.8 26.962C31.1314 26.962 31.4 26.6934 31.4 26.362V25.8273C31.4 25.0056 32.0685 24.337 32.8902 24.337H33.8098C34.6315 24.337 35.3 25.0056 35.3 25.8273V31.0219C35.3 31.8436 34.6315 32.5121 33.8098 32.5121H31.4C31.4 28.5851 31.4029 28.8268 31.3948 28.7621C31.4406 28.3957 31.1541 28.0871 30.8 28.0871H17.375C17.0437 28.0871 16.775 28.3558 16.775 28.6871C16.775 29.0185 17.0437 29.2871 17.375 29.2871H30.2V33.1121C30.2 33.4435 30.4687 33.7121 30.8 33.7121H33.8098C35.2932 33.7121 36.5 32.5053 36.5 31.0219V25.8273C36.5 24.3633 35.3166 23.137 33.8 23.137ZM27.725 32.512C27.1825 32.512 11.9924 32.512 11.1403 32.512C10.3186 32.512 9.65 31.8435 9.65 31.0218V25.8273C9.65 25.0056 10.3186 24.337 11.1403 24.337H12.0598C12.8815 24.337 13.5501 25.0056 13.5501 25.8273V29.212C13.5501 29.5434 13.8187 29.812 14.1501 29.812C14.4814 29.812 14.7501 29.5434 14.7501 29.212V25.8273C14.7501 24.3439 13.5433 23.137 12.0598 23.137H11.1403C9.65683 23.137 8.45 24.3439 8.45 25.8273V31.0219C8.45 32.5053 9.65683 33.7121 11.1403 33.7121H27.725C28.0564 33.7121 28.325 33.4435 28.325 33.1121C28.325 32.7808 28.0564 32.512 27.725 32.512Z" fill="white"/>
    </g>
    <defs>
      <clipPath id="clip0_58_754">
        <rect width="36" height="36" fill="white" transform="translate(0.5)"/>
      </clipPath>
    </defs>
  </svg>