
<svg xmlns="http://www.w3.org/2000/svg" width="37" height="36" viewBox="0 0 37 36" fill="none">
    <g clip-path="url(#clip0_58_758)">
      <path d="M33.822 18.7462H29.9962C28.4946 18.7462 27.3182 19.9226 27.3182 21.4242V30.9887C27.3182 31.6325 26.8143 32.1364 26.1705 32.1364H10.8674C10.2239 32.1364 9.71964 31.6325 9.71964 30.9887V17.5985C9.71964 16.955 10.2239 16.4507 10.8674 16.4507H27.2034C28.2934 16.4507 29.2326 15.8195 29.6534 14.8037C30.0766 13.7823 29.8581 12.667 29.0838 11.8927L20.3231 3.13168C19.2584 2.06657 17.5892 2.06699 16.5245 3.13168L0.724087 18.9322C0.425325 19.2309 0.425325 19.7153 0.724087 20.0141C1.0225 20.3128 1.50759 20.3128 1.806 20.0141L17.6064 4.21366C18.072 3.7477 18.7748 3.74805 19.2408 4.21366L28.0014 12.9747C28.4953 13.469 28.3086 14.0512 28.2394 14.218C28.1709 14.3829 27.895 14.9204 27.2034 14.9204H10.8674C9.36575 14.9204 8.18934 16.0969 8.18934 17.5985V30.989C8.18934 32.4906 9.36575 33.6671 10.8674 33.6671H26.1705C27.6721 33.6671 28.8485 32.4906 28.8485 30.989V21.4246C28.8485 20.7808 29.3524 20.2769 29.9962 20.2769H33.822C34.4658 20.2769 34.9697 20.7808 34.9697 21.4246V30.9891C34.9697 31.633 34.4658 32.1368 33.822 32.1368H31.9091C31.4867 32.1368 31.1439 32.4796 31.1439 32.902C31.1439 33.3244 31.4867 33.6671 31.9091 33.6671H33.822C35.3232 33.6671 36.5 32.4907 36.5 30.9887V21.4242C36.5 19.9226 35.3236 18.7462 33.822 18.7462Z" fill="#292D32"/>
    </g>
    <defs>
      <clipPath id="clip0_58_758">
        <rect width="36" height="36" fill="white" transform="translate(0.5)"/>
      </clipPath>
    </defs>
  </svg>