<svg width="90" height="90" viewBox="0 0 90 90" fill="none" xmlns="http://www.w3.org/2000/svg">
<circle cx="45" cy="45" r="44.5" fill="#292D32"/>
<g clip-path="url(#clip0_58_895)">
<path d="M65.4368 43.5765H48.9163C48.5021 43.5765 48.1663 43.9123 48.1663 44.3265C48.1663 44.7407 48.5021 45.0765 48.9163 45.0765H65.4368C65.7473 45.0765 65.9999 45.3291 65.9999 45.6397V65.4195C65.9999 65.7301 65.7473 65.9827 65.4368 65.9827H45.6569C45.3463 65.9827 45.0938 65.7301 45.0938 65.4195V46.9368C45.0938 46.5226 44.7579 46.1868 44.3438 46.1868H35.5043C34.9262 46.1868 34.5662 45.5616 34.8548 45.0618L46.788 24.3929C47.0771 23.8922 47.7984 23.893 48.087 24.3929L57.6818 41.0117C57.889 41.3705 58.3478 41.4936 58.7063 41.2862C59.065 41.0791 59.1879 40.6204 58.9808 40.2617L49.3861 23.6429C48.5203 22.1434 46.3557 22.1416 45.489 23.6429L37.0458 38.267C32.267 37.385 27.75 41.0459 27.75 46.014C27.75 50.3562 31.2827 53.889 35.625 53.889C37.3559 53.889 38.9984 53.338 40.375 52.2957C40.7052 52.0457 40.7702 51.5752 40.5202 51.2451C40.2701 50.9148 39.7997 50.8498 39.4694 51.0998C38.3557 51.9432 37.0262 52.389 35.625 52.389C32.1098 52.389 29.25 49.5291 29.25 46.014C29.25 42.2044 32.549 39.3038 36.2377 39.6666L33.5558 44.3118C32.6901 45.8112 33.7705 47.6868 35.5043 47.6868H43.5938V54.4778C41.429 56.5187 38.6114 57.639 35.625 57.639C29.2149 57.639 24 52.4241 24 46.014C24 39.6039 29.2149 34.389 35.625 34.389C36.0392 34.389 36.375 34.0532 36.375 33.639C36.375 33.2248 36.0392 32.889 35.625 32.889C28.3879 32.889 22.5 38.7769 22.5 46.014C22.5 53.2511 28.3879 59.139 35.625 59.139C38.5419 59.139 41.3159 58.1918 43.5938 56.4447V65.4195C43.5938 66.5571 44.5193 67.4827 45.6569 67.4827H65.4368C66.5744 67.4827 67.4999 66.5571 67.4999 65.4195V45.6397C67.5 44.5021 66.5744 43.5765 65.4368 43.5765Z" fill="white"/>
</g>
<defs>
<clipPath id="clip0_58_895">
<rect width="45" height="45" fill="white" transform="translate(22.5 22.5)"/>
</clipPath>
</defs>
</svg>
