
<svg xmlns="http://www.w3.org/2000/svg" width="37" height="36" viewBox="0 0 37 36" fill="none">
    <g clip-path="url(#clip0_58_764)">
      <path d="M34.85 32.55C34.5186 32.55 34.25 32.8187 34.25 33.15V34.2C34.25 34.5308 33.9808 34.8 33.65 34.8H3.35C3.01917 34.8 2.75 34.5308 2.75 34.2V33.15C2.75 32.8192 3.01917 32.55 3.35 32.55H32C32.3313 32.55 32.6 32.2814 32.6 31.95V14.1C32.6 13.0373 32.481 12.002 32.2572 11.006C32.2533 10.9814 32.2482 10.9572 32.2414 10.9337C30.8006 4.67842 25.1865 0 18.5 0C10.7252 0 4.4 6.3252 4.4 14.1V29.1653C4.4 29.4967 4.66865 29.7653 5 29.7653C5.33135 29.7653 5.6 29.4967 5.6 29.1653V27.9H29.0266C29.358 27.9 29.6266 27.6314 29.6266 27.3C29.6266 26.9687 29.358 26.7 29.0266 26.7H16.5503C16.5503 26.681 16.55 26.017 16.5499 26.0129C16.4988 23.4824 18.1964 21.2046 20.7438 20.6069C21.0665 20.5313 21.2667 20.2084 21.191 19.8858C21.1153 19.5632 20.7925 19.3631 20.4699 19.4387C19.7577 19.6057 18.493 20.0399 17.3634 21.1325C17.0523 19.8056 17.6967 18.4943 19.4947 17.9733C20.3766 17.7184 21.8073 18.3899 23.2239 17.4884C23.5623 17.2731 24.0155 17.4705 24.0912 17.873C24.4085 19.5611 24.0179 21.0725 22.9914 22.1291C22.1021 23.0446 20.8342 23.5 19.6827 23.3177C19.3552 23.2661 19.048 23.4893 18.9963 23.8165C18.9445 24.1439 19.1679 24.4511 19.4951 24.503C21.0732 24.7525 22.7313 24.1188 23.8521 22.9652C25.1583 21.6209 25.662 19.7337 25.2705 17.6513C25.0388 16.4179 23.6352 15.8045 22.5798 16.4759C21.567 17.1205 20.3592 16.4742 19.1611 16.8206C17.4923 17.3042 16.7452 18.2746 16.4124 19.0034C15.9501 20.0159 15.9998 21.2011 16.47 22.2023C16.095 22.7645 15.8436 23.333 15.6753 23.8618C15.3846 23.4377 15.0333 23.0668 14.6292 22.7549C14.3669 22.5523 13.9902 22.6009 13.7877 22.8632C13.5852 23.1255 13.6337 23.5022 13.896 23.7047C14.8386 24.4323 15.3499 25.555 15.3499 26.6998H5.6V14.1C5.6 8.91397 8.67657 4.43363 13.1 2.3862V8.5137C13.1 8.84505 13.3686 9.1137 13.7 9.1137C14.0313 9.1137 14.3 8.84505 14.3 8.5137V1.90253C21.3174 -0.5205 28.8492 3.49507 30.8882 10.5H23.9V4.37183C23.9 4.04048 23.6313 3.77183 23.3 3.77183C22.9686 3.77183 22.7 4.04048 22.7 4.37183V10.5H8.47182C8.14047 10.5 7.87182 10.7687 7.87182 11.1C7.87182 11.4314 8.14047 11.7 8.47182 11.7H31.1752C31.3222 12.4779 31.4 13.28 31.4 14.1V31.35H3.35C2.35752 31.35 1.55 32.1575 1.55 33.15V34.2C1.55 35.1925 2.35752 36 3.35 36H33.65C34.6425 36 35.45 35.1925 35.45 34.2V33.15C35.45 32.8187 35.1813 32.55 34.85 32.55Z" fill="#292D32"/>
    </g>
    <defs>
      <clipPath id="clip0_58_764">
        <rect width="36" height="36" fill="white" transform="translate(0.5)"/>
      </clipPath>
    </defs>
  </svg>