<svg width="90" height="90" viewBox="0 0 90 90" fill="none" xmlns="http://www.w3.org/2000/svg">
<circle cx="45" cy="45" r="44.5" fill="#292D32"/>
<g clip-path="url(#clip0_58_884)">
<path d="M48.7564 29.8991C46.6824 27.774 43.3178 27.7738 41.2436 29.8991L35.8373 35.4389C33.6847 37.6447 35.2334 41.371 38.2563 41.371H39.1935V66.7739C39.1935 67.1747 39.5185 67.4997 39.9193 67.4997C40.3202 67.4997 40.6451 67.1747 40.6451 66.7739V40.6451C40.6451 40.2443 40.3202 39.9193 39.9193 39.9193H38.2563C36.4849 39.9193 35.6448 37.7145 36.8762 36.4528L42.2825 30.913C43.7862 29.3721 46.2132 29.3716 47.7174 30.913L53.1237 36.4528C54.3562 37.7156 53.5137 39.9193 51.7436 39.9193C50.1161 39.9193 48.8522 39.9193 47.9032 39.9193C47.5024 39.9193 47.1774 40.2443 47.1774 40.6451C47.1774 41.0459 47.5024 41.3709 47.9032 41.3709H51.7436C54.769 41.3709 56.3132 37.6426 54.1626 35.4388L48.7564 29.8991Z" fill="white"/>
<path d="M50.0803 45.7261C49.6795 45.7261 49.3545 46.0511 49.3545 46.4519V66.7741C49.3545 67.175 49.6795 67.5 50.0803 67.5C50.4812 67.5 50.8061 67.175 50.8061 66.7741V46.4519C50.8061 46.0511 50.4812 45.7261 50.0803 45.7261Z" fill="white"/>
<path d="M63.871 22.5H26.1291C24.1281 22.5 22.5001 24.128 22.5001 26.129C22.5001 61.3249 22.4998 60.2821 22.5006 60.3037C22.5337 62.2764 24.1488 63.8709 26.1291 63.8709H33.3872C33.788 63.8709 34.113 63.5459 34.113 63.1451C34.113 62.7443 33.788 62.4193 33.3872 62.4193H26.1291C24.9285 62.4193 23.9517 61.4424 23.9517 60.2419V26.129C23.9517 24.9285 24.9285 23.9516 26.1291 23.9516H63.871C65.0715 23.9516 66.0484 24.9285 66.0484 26.129V60.2419C66.0484 61.4424 65.0715 62.4193 63.871 62.4193H56.6129C56.2121 62.4193 55.8871 62.7443 55.8871 63.1451C55.8871 63.5459 56.2121 63.8709 56.6129 63.8709H63.871C65.872 63.8709 67.5 62.2429 67.5 60.2419V26.129C67.5 24.1281 65.8719 22.5 63.871 22.5Z" fill="white"/>
</g>
<defs>
<clipPath id="clip0_58_884">
<rect width="45" height="45" fill="white" transform="translate(22.5 22.5)"/>
</clipPath>
</defs>
</svg>
