<svg width="90" height="90" viewBox="0 0 90 90" fill="none" xmlns="http://www.w3.org/2000/svg">
<circle cx="45" cy="45" r="44.5" fill="#292D32"/>
<g clip-path="url(#clip0_58_903)">
<path d="M57.4886 43.444L60.2616 39.523L65.0637 39.5844C67.0516 39.6099 68.2057 37.3429 67.0172 35.7504L64.1449 31.9015L65.6872 27.3533C66.3256 25.4706 64.5266 23.6724 62.6444 24.3106L58.0963 25.8529L54.2475 22.9805C52.6541 21.7916 50.388 22.947 50.4134 24.9341L50.4748 29.7362L46.5538 32.5091C45.994 32.9051 45.6401 33.4934 45.5574 34.166C45.5068 34.5771 45.7991 34.9513 46.2102 35.002C46.6215 35.0528 46.9956 34.7603 47.0461 34.3492C47.0677 34.1738 47.1501 33.9247 47.4198 33.7339L51.6628 30.7333C51.8644 30.5907 51.9829 30.3582 51.9797 30.1114L51.9133 24.915C51.9037 24.1711 52.7499 23.7347 53.3504 24.1828L57.5153 27.2909C57.7132 27.4385 57.9709 27.4792 58.2047 27.4001L63.1262 25.7312C63.8313 25.4918 64.5071 26.1628 64.2667 26.8717L62.5977 31.7932C62.5184 32.027 62.5593 32.2848 62.707 32.4826L65.8151 36.6476C66.2597 37.2433 65.8349 38.0904 65.0828 38.0846L59.8864 38.0182C59.6403 38.0156 59.407 38.1336 59.2644 38.3351L56.2639 42.578C55.8341 43.1855 54.8932 43.0411 54.6709 42.3258L53.1283 37.3632C53.055 37.1274 52.8705 36.9429 52.6347 36.8696C49.8229 35.9955 50.1719 36.1034 50.1179 36.0883C49.8749 36.0207 49.614 36.0778 49.4207 36.2477C49.3768 36.2864 23.452 60.6211 23.2088 60.8494C22.511 61.5044 22.3065 62.5333 22.7001 63.4098C23.4789 65.1449 24.866 66.5283 26.6057 67.3051C27.4653 67.6889 28.4849 67.4962 29.1408 66.8159L51.0605 44.0794C51.348 43.7811 51.3394 43.3064 51.0411 43.0188C50.743 42.7314 50.2682 42.74 49.9806 43.0383L28.0609 65.7746C27.8444 65.9992 27.5054 66.0639 27.2174 65.9353C25.8146 65.3089 24.6962 64.1939 24.0686 62.7954C23.9371 62.5025 24.0042 62.1601 24.2355 61.9429L50.1106 37.6557L51.8129 38.1848L53.2385 42.7708C53.831 44.677 56.3448 45.0614 57.4886 43.444Z" fill="white"/>
<path d="M37.6322 29.4043C38.2603 29.842 38.8007 30.3825 39.2384 31.0104C39.6161 31.5524 40.2342 31.8759 40.8918 31.8759C41.3059 31.8759 41.6418 31.5401 41.6418 31.1259C41.6418 30.7117 41.3059 30.3759 40.8918 30.3759C40.722 30.3759 40.5678 30.2945 40.4689 30.1527C39.9296 29.3789 39.2638 28.713 38.49 28.1737C38.1919 27.966 38.1919 27.5357 38.49 27.3281C39.2638 26.7887 39.9296 26.1229 40.4689 25.3491C40.6766 25.0512 41.1069 25.0512 41.3146 25.3491C41.8539 26.1229 42.5197 26.7887 43.2935 27.3281C43.5916 27.5357 43.5916 27.966 43.2935 28.1737C43.1946 28.2427 43.096 28.3148 43.0005 28.3881C42.6719 28.6402 42.6098 29.111 42.8619 29.4397C43.1141 29.7683 43.5848 29.8304 43.9135 29.5783C43.9911 29.5188 44.071 29.4603 44.1513 29.4044C45.3042 28.6008 45.304 26.9011 44.1513 26.0977C43.5232 25.66 42.9829 25.1195 42.5451 24.4916C41.7416 23.3387 40.0419 23.3388 39.2385 24.4916C38.8007 25.1196 38.2603 25.66 37.6323 26.0977C36.4794 26.9011 36.4795 28.6008 37.6322 29.4043Z" fill="white"/>
<path d="M66.4147 49.0037C66.2145 48.8642 66.0172 48.7146 65.8286 48.5592C65.5089 48.2958 65.0362 48.3414 64.7729 48.6611C64.5095 48.9808 64.5551 49.4534 64.8748 49.7168C65.0944 49.8977 65.3239 50.0718 65.5569 50.2343C66.1241 50.6297 66.1262 51.4555 65.5569 51.8523C64.5223 52.5734 63.6321 53.4636 62.911 54.4982C62.5154 55.0657 61.6898 55.0674 61.293 54.4982C60.5719 53.4635 59.6817 52.5734 58.6472 51.8522C58.0796 51.4566 58.0779 50.631 58.6472 50.2342C59.6818 49.5132 60.5719 48.6229 61.2931 47.5884C61.5072 47.2812 61.8555 47.1253 62.2236 47.1701C62.634 47.221 63.009 46.9284 63.0596 46.5173C63.1102 46.1062 62.8179 45.7319 62.4068 45.6813C61.4904 45.5686 60.5924 45.9707 60.0626 46.7308C59.4431 47.6195 58.6784 48.3842 57.7896 49.0037C56.367 49.9951 56.367 52.0914 57.7896 53.0829C58.6784 53.7024 59.4431 54.4671 60.0626 55.3559C61.054 56.7785 63.1503 56.7785 64.1418 55.3559C64.7613 54.4671 65.526 53.7024 66.4148 53.0829C67.8371 52.0914 67.8372 49.9952 66.4147 49.0037Z" fill="white"/>
<path d="M36.7471 38.0635H37.3096V38.626C37.3096 39.0402 37.6454 39.376 38.0596 39.376C38.4738 39.376 38.8096 39.0402 38.8096 38.626V38.0635H39.3721C39.7863 38.0635 40.1221 37.7277 40.1221 37.3135C40.1221 36.8993 39.7863 36.5635 39.3721 36.5635H38.8096V36.001C38.8096 35.5868 38.4738 35.251 38.0596 35.251C37.6454 35.251 37.3096 35.5868 37.3096 36.001V36.5635H36.7471C36.3329 36.5635 35.9971 36.8993 35.9971 37.3135C35.9971 37.7277 36.3329 38.0635 36.7471 38.0635Z" fill="white"/>
</g>
<defs>
<clipPath id="clip0_58_903">
<rect width="45" height="45" fill="white" transform="translate(22.5 22.5)"/>
</clipPath>
</defs>
</svg>
