<svg width="83" height="82" viewBox="0 0 83 82" fill="none" xmlns="http://www.w3.org/2000/svg">
<g clip-path="url(#clip0_58_517)">
<path d="M16.0458 75.423C16.0458 76.1778 15.4339 76.7897 14.6792 76.7897H1.86667C1.11192 76.7897 0.5 76.1778 0.5 75.423C0.5 74.6683 1.11192 74.0564 1.86667 74.0564H14.6792C15.4339 74.0564 16.0458 74.6683 16.0458 75.423ZM32.275 15.1188C37.55 15.1188 41.8417 19.4105 41.8417 24.6855V27.0772C41.8417 27.8319 41.2297 28.4438 40.475 28.4438H24.075C23.3203 28.4438 22.7083 27.8319 22.7083 27.0772V24.6855C22.7083 19.4105 27 15.1188 32.275 15.1188ZM25.4417 24.6855V25.7105H39.1083V24.6855C39.1083 20.9176 36.0429 17.8522 32.275 17.8522C28.5071 17.8522 25.4417 20.9176 25.4417 24.6855ZM11.8604 71.323C12.6152 71.323 13.2281 70.7109 13.2271 69.9545L13.1553 16.5392C13.149 11.7903 16.99 7.94385 21.7392 7.94385H22.3246C25.0648 7.94385 27.5762 9.20631 29.2149 11.4075C29.6655 12.0128 30.5217 12.1383 31.1272 11.6877C31.7326 11.237 31.858 10.3808 31.4073 9.77535C29.2794 6.91714 25.884 5.21069 22.3246 5.21069H21.7392C15.4783 5.21069 10.4136 10.2815 10.422 16.5429L10.4937 69.9582C10.4948 70.7123 11.1064 71.323 11.8604 71.323ZM76.35 52.7022V43.791C76.35 39.7559 73.0671 36.473 69.032 36.473H31.7347C27.6996 36.473 24.4167 39.7559 24.4167 43.791V47.0647C24.4167 47.8194 25.0286 48.4314 25.7833 48.4314C26.5381 48.4314 27.15 47.8194 27.15 47.0647V43.791C27.15 41.263 29.2067 39.2063 31.7347 39.2063H49.1875V54.5814C49.1875 55.3361 49.7994 55.948 50.5542 55.948C51.3089 55.948 51.9208 55.3361 51.9208 54.5814V39.2063H69.032C71.56 39.2063 73.6167 41.263 73.6167 43.791V52.7384C70.5476 53.0691 68.15 55.6743 68.15 58.83V60.048C68.15 60.8028 68.7619 61.4147 69.5167 61.4147C70.2714 61.4147 70.8833 60.8028 70.8833 60.048V58.83C70.8833 56.9583 72.406 55.4355 74.2776 55.4355H76.3724C78.244 55.4355 79.7667 56.9583 79.7667 58.83V70.6621C79.7667 72.5337 78.244 74.0565 76.3724 74.0565H70.8833C70.8833 65.1117 70.89 65.6621 70.8715 65.5149C70.9758 64.6803 70.3232 63.9774 69.5167 63.9774H38.9375C38.1828 63.9774 37.5708 64.5893 37.5708 65.344C37.5708 66.0988 38.1828 66.7107 38.9375 66.7107H68.15V75.4232C68.15 76.1779 68.7619 76.7899 69.5167 76.7899H76.3724C79.7511 76.7899 82.5 74.041 82.5 70.6621V58.83C82.5 55.4953 79.8044 52.7022 76.35 52.7022ZM62.5125 74.0564C61.2767 74.0564 26.6771 74.0564 24.7361 74.0564C22.8645 74.0564 21.3417 72.5335 21.3417 70.6619V58.83C21.3417 56.9583 22.8645 55.4355 24.7361 55.4355H26.8307C28.7024 55.4355 30.2252 56.9583 30.2252 58.83V66.5397C30.2252 67.2944 30.8371 67.9064 31.5918 67.9064C32.3466 67.9064 32.9585 67.2944 32.9585 66.5397V58.83C32.9585 55.4511 30.2096 52.7022 26.8307 52.7022H24.7361C21.3572 52.7022 18.6083 55.4511 18.6083 58.83V70.6621C18.6083 74.041 21.3572 76.7899 24.7361 76.7899H62.5125C63.2672 76.7899 63.8792 76.1779 63.8792 75.4232C63.8792 74.6684 63.2672 74.0564 62.5125 74.0564Z" fill="black"/>
</g>
<defs>
<clipPath id="clip0_58_517">
<rect width="82" height="82" fill="white" transform="translate(0.5)"/>
</clipPath>
</defs>
</svg>
