<svg width="83" height="82" viewBox="0 0 83 82" fill="none" xmlns="http://www.w3.org/2000/svg">
<g clip-path="url(#clip0_58_554)">
<path d="M23.4447 58.2091C24.7185 61.464 29.5075 61.1498 30.2533 57.678C30.2984 57.4674 30.3498 57.2541 30.4063 57.0436C30.6016 56.3144 30.1687 55.5654 29.4397 55.3702C28.711 55.1751 27.9615 55.6078 27.7663 56.3366C27.6983 56.591 27.6359 56.8496 27.5813 57.1044C27.4673 57.635 27.0289 57.7269 26.8458 57.7416C26.6987 57.7525 26.2004 57.7508 25.9902 57.2131C23.737 51.4545 24.1068 46.0506 26.9428 41.9818C27.3375 43.863 27.8214 45.7571 28.3947 47.6543C29.0342 49.7712 30.7577 51.4323 32.8925 51.9897C38.3065 53.4033 44.2016 53.5073 49.9765 52.0221C51.35 53.6703 52.3028 55.6095 52.7469 57.6782C53.4925 61.1504 58.2817 61.4632 59.5553 58.2089C61.026 54.4499 61.5302 50.6537 61.0128 47.2303C60.9001 46.4841 60.204 45.9686 59.4576 46.0833C58.7115 46.1961 58.1978 46.8923 58.3106 47.6386C58.7562 50.5887 58.3066 53.8995 57.0102 57.2131C56.7999 57.7506 56.3013 57.7525 56.1544 57.7416C55.9713 57.7267 55.5328 57.635 55.4187 57.1044C54.9271 54.8149 53.9231 52.6589 52.4873 50.7863C53.4752 49.9891 54.2282 48.9033 54.6048 47.6563C59.578 31.198 58.4566 13.1345 45.8113 1.67122C43.3535 -0.557183 39.6465 -0.556842 37.1887 1.67122C26.9156 10.984 24.216 24.6547 26.307 38.4612C21.5161 43.4462 20.4661 50.5965 23.4447 58.2091ZM39.0243 3.69585C40.436 2.4163 42.5642 2.41647 43.9757 3.69585C58.8947 17.2202 54.5493 38.3912 51.9887 46.8657C51.6201 48.0856 50.6323 49.0276 49.4383 49.3405C44.2571 50.6983 38.7742 50.7009 33.5827 49.3453C32.3623 49.0268 31.3769 48.0757 31.0107 46.864C30.7362 45.9554 30.4412 44.9 30.1516 43.7248C35.1675 44.7765 40.4183 45.1567 45.8202 44.7336C46.5724 44.6747 47.1346 44.017 47.0758 43.2644C47.017 42.5119 46.3587 41.9502 45.6067 42.0088C40.1962 42.4324 34.7822 42.018 29.4995 40.7805C26.8049 27.1028 28.6126 13.1342 39.0243 3.69585Z" fill="black"/>
<path d="M34.5323 23.7151C35.2721 23.8661 35.9937 23.3895 36.1449 22.6503C36.6623 20.1223 38.9143 18.2874 41.4998 18.2874C44.5138 18.2874 46.9658 20.7394 46.9658 23.7534C46.9658 28.2001 41.9644 30.7284 38.389 28.2484C37.769 27.8182 36.9175 27.9721 36.4874 28.5924C36.0571 29.2125 36.2112 30.0638 36.8314 30.4941C42.1419 34.178 49.6989 30.4862 49.6989 23.7534C49.6989 19.2325 46.0209 15.5544 41.5 15.5544C37.6221 15.5544 34.2441 18.3082 33.4676 22.1025C33.3163 22.8417 33.793 23.5639 34.5323 23.7151Z" fill="black"/>
<path d="M68.6344 67.3466C66.9096 63.9464 63.3442 61.7244 59.6791 61.8631C55.7129 62.0089 52.3289 64.5581 51.001 68.174C48.0103 65.8249 46.4609 62.1512 46.8008 58.0278C46.8628 57.2758 46.3034 56.6157 45.5513 56.5537C44.8011 56.4912 44.1392 57.0511 44.0772 57.8032C43.593 63.6738 46.2508 68.8194 51.1866 71.5675C52.0193 72.0315 53.0708 71.5171 53.2043 70.5637C53.6727 67.2277 56.438 64.717 59.7794 64.594C62.0722 64.5123 64.3209 65.7412 65.6814 67.7113C63.3702 68.4793 61.323 70.3403 60.1369 72.9168C59.8212 73.6024 60.1212 74.4139 60.8066 74.7294C61.4921 75.0449 62.3038 74.7455 62.6193 74.0597C63.8179 71.4562 66.2574 69.821 68.5514 70.0825C71.6398 70.4349 72.6061 72.8394 72.4951 74.7911C72.3683 77.019 70.8843 79.2669 67.8545 79.2669H15.1452C12.1155 79.2669 10.6313 77.019 10.5048 74.7911C10.3937 72.8392 11.36 70.4349 14.4485 70.0825C16.7428 69.8195 19.182 71.4562 20.3806 74.0597C20.6962 74.7451 21.5081 75.0451 22.1932 74.7294C22.8789 74.4138 23.1788 73.6022 22.8631 72.9168C21.6769 70.3399 19.6299 68.4786 17.3179 67.7108C18.6769 65.7403 20.922 64.5101 23.2203 64.594C26.5619 64.7171 29.327 67.2277 29.7953 70.5637C29.9288 71.5134 30.9758 72.034 31.8133 71.5675C36.7492 68.8194 39.4071 63.6737 38.9228 57.8032C38.8608 57.0513 38.2025 56.4934 37.4485 56.5537C36.6965 56.6157 36.1371 57.2758 36.1991 58.0278C36.5393 62.1514 34.9895 65.8249 31.9988 68.174C30.6711 64.5581 27.287 62.0089 23.3209 61.8631C19.6468 61.7223 16.0889 63.9459 14.3653 67.3466C10.0533 67.6987 7.5576 71.1053 7.77606 74.9464C7.9754 78.4516 10.5707 82 15.1452 82H67.8547C72.4292 82 75.0245 78.4516 75.224 74.9464C75.4419 71.1115 72.9566 67.6992 68.6344 67.3466Z" fill="black"/>
</g>
<defs>
<clipPath id="clip0_58_554">
<rect width="82" height="82" fill="white" transform="translate(0.5)"/>
</clipPath>
</defs>
</svg>
