<svg width="63" height="82" viewBox="0 0 63 82" fill="none" xmlns="http://www.w3.org/2000/svg">
<path d="M62.1914 13.2128L55.2672 6.28855C54.7335 5.75503 53.8682 5.75503 53.3345 6.28855C52.8007 6.8224 52.8007 7.6875 53.3345 8.22135L59.8583 14.7451V70.0417H8.60286C7.84812 70.0417 7.23619 70.6536 7.23619 71.4083C7.23619 72.1631 7.84812 72.775 8.60286 72.775H59.8583V77.9C59.8583 78.6535 59.2452 79.2667 58.4917 79.2667H4.50833C3.75478 79.2667 3.14166 78.6535 3.14166 77.9V4.1C3.14166 3.34645 3.75478 2.73333 4.50833 2.73333H47.0458V11.4458C47.0458 13.7065 48.885 15.5458 51.1458 15.5458H53.1104C53.8652 15.5458 54.4771 14.9339 54.4771 14.1792C54.4771 13.4244 53.8652 12.8125 53.1104 12.8125H51.1458C50.3923 12.8125 49.7792 12.1994 49.7792 11.4458V1.36667C49.7792 0.611925 49.1672 0 48.4125 0H4.50833C2.24769 0 0.408325 1.83936 0.408325 4.1V77.9C0.408325 80.1606 2.24769 82 4.50833 82H58.4917C60.7523 82 62.5917 80.1606 62.5917 77.9V14.1792C62.5917 13.8167 62.4477 13.4692 62.1914 13.2128Z" fill="black"/>
<path d="M39.5612 38.3926C38.654 39.2348 39.2542 40.7607 40.4914 40.7607C40.8241 40.7607 41.1578 40.6399 41.4209 40.3955C43.5387 38.429 44.7051 35.7505 44.7051 32.8535C44.7051 27.1721 40.0829 22.55 34.4017 22.55C31.2571 22.55 28.2862 24.0086 26.3465 26.4319C24.0635 25.3645 21.2424 26.38 20.2753 28.8611L8.60037 58.8164C7.45749 61.7488 9.62434 64.9167 12.7701 64.9167H49.6984C53.3027 64.9167 55.4302 60.8625 53.3792 57.8963L45.8613 47.0236C44.8866 45.6137 43.1623 44.8793 41.468 45.1498C40.7228 45.2692 40.2153 45.9701 40.3347 46.7154C40.4541 47.4606 41.1549 47.967 41.9004 47.8488C42.5718 47.7413 43.2276 48.0206 43.613 48.5782L51.1309 59.4509C51.9312 60.6085 51.1042 62.1834 49.6983 62.1834H12.7701C11.5476 62.1834 10.6997 60.9566 11.1471 59.8091L22.8221 29.8539C23.3925 28.3898 25.4517 28.372 26.053 29.8171L34.9722 51.2526C35.2622 51.9494 36.0622 52.2792 36.759 51.9894C37.4558 51.6995 37.7857 50.8995 37.4958 50.2027C27.9061 27.1559 28.5534 28.6727 28.3514 28.3088C29.7721 26.4257 32.0184 25.2834 34.4017 25.2834C38.576 25.2834 41.9718 28.6794 41.9718 32.8535C41.9718 34.9819 41.1158 36.9491 39.5612 38.3926Z" fill="black"/>
</svg>
