<svg width="83" height="82" viewBox="0 0 83 82" fill="none" xmlns="http://www.w3.org/2000/svg">
<g clip-path="url(#clip0_58_536)">
<path d="M46.0961 51.3763C48.9799 51.699 51.9321 50.2383 53.0605 47.203C57.9554 46.5177 61.659 42.34 61.659 37.2916C61.659 34.1744 60.2245 31.2895 57.8233 29.4117C61.3742 24.9565 59.1119 18.2347 53.5362 16.8611C53.5409 12.7073 49.98 10.1149 46.0968 10.448C45.3448 10.5126 44.7874 11.1744 44.8519 11.9264C44.9163 12.6784 45.5787 13.235 46.3303 13.1712C47.7226 13.0513 49.1052 13.5455 49.9371 14.4593C50.5291 15.1095 50.8185 15.9254 50.8046 16.8915C49.1002 17.412 47.8658 18.5923 47.3493 20.2439C47.1242 20.9643 47.5255 21.7309 48.246 21.956C48.9695 22.182 49.7338 21.7768 49.9581 21.0593C50.3136 19.9221 51.2942 19.5196 52.105 19.3875C54.7456 19.6199 56.7956 21.8455 56.7956 24.5125C56.7956 26.1021 56.0762 27.5785 54.8221 28.5633C54.044 29.1744 54.154 30.387 55.0298 30.8477C57.4326 32.1117 58.9254 34.5809 58.9254 37.2914C58.9254 41.204 55.865 44.3974 51.9584 44.5612C51.3419 44.587 50.8191 45.0228 50.6826 45.6248C50.1097 48.1543 48.0171 48.8395 46.3998 48.6598C44.6413 48.4632 42.8667 47.1767 42.8667 44.746V17.0586C42.8667 14.3946 41.6148 12.2407 39.4321 11.1486C35.2846 9.07347 29.4573 11.494 29.4638 16.8611C23.8869 18.2354 21.6265 24.9572 25.1767 29.4117C22.7755 31.2895 21.341 34.1744 21.341 37.2916C21.341 42.3393 25.044 46.5166 29.9378 47.2026C31.0257 50.156 33.8094 51.6525 36.7421 51.3925C37.4938 51.3253 38.049 50.6618 37.9822 49.9098C37.9151 49.1581 37.2545 48.6033 36.4995 48.6697C34.9217 48.8119 32.877 48.0973 32.317 45.6248C32.1805 45.023 31.658 44.5872 31.0412 44.5612C27.1346 44.3974 24.0743 41.2041 24.0743 37.2914C24.0743 34.5809 25.5669 32.1121 27.9698 30.8477C28.8455 30.387 28.9559 29.1744 28.1776 28.5633C26.9235 27.5785 26.2041 26.1021 26.2041 24.5125C26.2041 21.8457 28.2541 19.6199 30.8947 19.3875C31.7054 19.5196 32.686 19.9219 33.0415 21.0593C33.2243 21.6441 33.7638 22.0185 34.3457 22.0185C35.2651 22.0185 35.9259 21.1249 35.6505 20.2438C35.1344 18.5928 33.9008 17.4129 32.1976 16.892C32.1792 15.3964 32.8936 14.5082 33.5585 14.01C35.741 12.3753 40.1333 12.9159 40.1333 17.0586V44.7459C40.1333 48.8431 43.2244 51.0549 46.0961 51.3763Z" fill="black"/>
<path d="M51.915 33.3567C51.1668 33.3412 50.5381 33.9413 50.525 34.6997C50.5207 34.9535 50.4454 35.1956 50.314 35.403C49.049 34.7607 47.6082 34.8011 46.3788 35.3605C45.6919 35.6734 45.3887 36.4839 45.7017 37.1708C46.0144 37.8577 46.8254 38.1604 47.512 37.848C47.7467 37.741 48.2185 37.5809 48.7439 37.7152C49.739 37.9686 50.1204 39.1313 50.1228 39.1389C50.3027 39.7278 50.8442 40.1069 51.4293 40.1069C52.3452 40.1069 53.0055 39.2201 52.7369 38.3408C52.7055 38.2381 52.5709 37.8293 52.282 37.3283C52.8864 36.618 53.241 35.7122 53.2578 34.7468C53.2709 33.9922 52.6698 33.3697 51.915 33.3567Z" fill="black"/>
<path d="M31.8481 40.7215C32.564 40.9457 33.3306 40.5427 33.5593 39.8262C33.5629 39.8146 33.9444 38.6519 34.9395 38.3986C35.671 38.2122 36.1129 37.4684 35.9267 36.7369C35.7404 36.0053 34.9962 35.5644 34.265 35.7496C33.936 35.8333 33.6379 35.9498 33.3665 36.0879C33.0019 35.5009 33.0989 34.6231 33.8197 34.1829C34.4639 33.7895 34.667 32.9483 34.2736 32.3042C33.8803 31.6602 33.0395 31.4569 32.3949 31.8503C30.1365 33.2296 29.8422 36.1987 31.3978 38.0169C31.1109 38.5156 30.9772 38.922 30.9459 39.0241C30.7269 39.7428 31.1308 40.4978 31.8481 40.7215Z" fill="black"/>
<path d="M41.5002 0C24.3919 0 10.6147 13.742 10.5792 30.8554C10.5544 42.8399 17.3952 53.4975 27.8036 58.6479C29.739 59.6056 31.1171 61.4616 31.4897 63.6127C31.6033 64.2677 32.1715 64.746 32.8364 64.746H43.4342C44.1889 64.746 44.8008 64.1341 44.8008 63.3793C44.8008 62.6246 44.1889 62.0127 43.4342 62.0127H33.9147C33.1543 59.4941 31.3826 57.3694 29.0157 56.1984C19.3074 51.3942 13.2901 41.6856 13.3125 30.861C13.3446 15.3513 25.9897 2.73316 41.5003 2.73333C57.0428 2.7335 69.6875 15.3784 69.6875 30.9208C69.6875 41.7125 63.6761 51.3954 53.9989 56.1908C50.7149 57.818 48.675 61.116 48.675 64.7973C48.675 72.624 48.7114 72.4696 48.5735 73.2875H43.8917C43.1369 73.2875 42.525 73.8994 42.525 74.6542C42.525 75.4089 43.1369 76.0208 43.8917 76.0208H47.4992C46.2157 77.9738 44.0066 79.2667 41.5 79.2667C37.5437 79.2667 34.325 76.048 34.325 72.0917V71.0667H38.9375C39.6922 71.0667 40.3042 70.4547 40.3042 69.7C40.3042 68.9453 39.6922 68.3333 38.9375 68.3333H32.9583C32.2036 68.3333 31.5917 68.9453 31.5917 69.7V72.0917C31.5917 77.5551 36.0366 82 41.5 82C46.9474 82 51.4083 77.5657 51.4083 72.0917V64.7973C51.4083 62.1622 52.8659 59.8028 55.2125 58.6399C65.566 53.5094 72.4208 42.9017 72.4208 30.9208C72.4208 13.8712 58.5499 0.000170833 41.5002 0Z" fill="black"/>
<path d="M5.96667 29.5542H1.86667C1.11192 29.5542 0.5 30.1661 0.5 30.9208C0.5 31.6756 1.11192 32.2875 1.86667 32.2875H5.96667C6.72141 32.2875 7.33333 31.6756 7.33333 30.9208C7.33333 30.1661 6.72141 29.5542 5.96667 29.5542Z" fill="black"/>
<path d="M15.4078 6.76141C15.9418 7.2951 16.8067 7.29493 17.3406 6.76141C17.8743 6.22756 17.8743 5.36246 17.3406 4.82861L14.4414 1.92939C13.9075 1.39588 13.0424 1.39588 12.5086 1.92939C11.9749 2.46325 11.9749 3.32835 12.5086 3.8622L15.4078 6.76141Z" fill="black"/>
<path d="M15.4078 55.0803L12.5086 57.9795C11.9749 58.5133 11.9749 59.3784 12.5086 59.9123C13.0426 60.446 13.9075 60.4458 14.4414 59.9123L17.3406 57.0131C17.8743 56.4792 17.8743 55.6141 17.3406 55.0803C16.8067 54.5467 15.9416 54.5467 15.4078 55.0803Z" fill="black"/>
<path d="M81.1337 29.5542H77.0337C76.2789 29.5542 75.667 30.1661 75.667 30.9209C75.667 31.6756 76.2789 32.2875 77.0337 32.2875H81.1337C81.8884 32.2875 82.5003 31.6756 82.5003 30.9209C82.5003 30.1661 81.8884 29.5542 81.1337 29.5542Z" fill="black"/>
<path d="M66.6261 7.16172C66.9759 7.16172 67.3256 7.02829 67.5925 6.76145L70.4917 3.86224C71.0254 3.32839 71.0254 2.46329 70.4917 1.92943C69.9578 1.39592 69.0927 1.39592 68.5589 1.92943L65.6597 4.82864C64.7961 5.69238 65.4195 7.16172 66.6261 7.16172Z" fill="black"/>
<path d="M67.5919 55.0803C67.058 54.5468 66.1929 54.5468 65.6591 55.0803C65.1254 55.6142 65.1254 56.4793 65.6591 57.0131L68.5583 59.9123C68.8253 60.1792 69.1748 60.3126 69.5247 60.3126C70.7316 60.3126 71.3545 58.8431 70.4911 57.9795L67.5919 55.0803Z" fill="black"/>
</g>
<defs>
<clipPath id="clip0_58_536">
<rect width="82" height="82" fill="white" transform="translate(0.5)"/>
</clipPath>
</defs>
</svg>
