<svg width="83" height="82" viewBox="0 0 83 82" fill="none" xmlns="http://www.w3.org/2000/svg">
<g clip-path="url(#clip0_58_600)">
<path d="M47.3647 62.1515L57.0858 52.6758C60.3633 49.4813 58.552 43.9129 54.0249 43.2548L40.5906 41.3028L34.585 29.1345C32.5585 25.0283 26.6998 25.0304 24.6744 29.1345L21.7541 35.0518C21.4199 35.7286 21.6979 36.548 22.3747 36.882C23.0515 37.216 23.871 36.9382 24.2049 36.2614L27.1252 30.3441C28.1479 28.2716 31.1044 28.2582 32.134 30.3441L38.4575 43.1568C38.6565 43.5601 39.0414 43.8398 39.4864 43.9043L53.6317 45.9597C55.9225 46.2925 56.8386 49.0997 55.1778 50.7186L44.9422 60.6959C44.6201 61.0099 44.4732 61.4622 44.5492 61.9055L46.9655 75.9936C47.3559 78.2692 44.9745 80.016 42.9174 78.9347L30.2655 72.2831C29.8675 72.0736 29.3917 72.0736 28.9937 72.2831L16.3418 78.9347C14.2978 80.0095 11.901 78.2833 12.2937 75.9936L14.71 61.9055C14.7861 61.4622 14.6391 61.0099 14.317 60.6959L4.08138 50.7186C2.42351 49.1024 3.33282 46.2932 5.6277 45.9597L19.773 43.9043C20.52 43.7959 21.0375 43.1023 20.929 42.3554C20.8203 41.6084 20.1271 41.0906 19.3801 41.1995L15.552 41.7557L17.1874 32.2208C17.2634 31.7775 17.1165 31.3252 16.7943 31.0112L8.03909 22.477C6.39164 20.8711 7.29497 18.0786 9.57585 17.7474L21.6753 15.9892C22.1203 15.9245 22.5052 15.645 22.7042 15.2417L28.1153 4.27769C29.1338 2.21445 32.0682 2.21069 33.0884 4.27769L38.4995 15.2417C38.6985 15.645 39.0834 15.9246 39.5284 15.9892L45.3322 16.8326C46.08 16.9419 46.7727 16.4236 46.8811 15.6766C46.9896 14.9296 46.4722 14.2362 45.7251 14.1277L40.6325 13.3877L35.5394 3.0679C33.5201 -1.02357 27.6828 -1.02169 25.6645 3.0679L20.5711 13.3875L9.1826 15.0425C4.66749 15.6985 2.86544 21.2508 6.13113 24.4342L14.372 32.467L12.708 42.1689L5.2348 43.2548C0.705507 43.913 -1.10218 49.4825 2.17376 52.6756L11.8948 62.1513L9.59993 75.5313C8.82643 80.0415 13.564 83.4828 17.6137 81.3538L29.6297 75.0366L41.6456 81.3538C45.6876 83.4785 50.4336 80.0446 49.6595 75.5313L47.3647 62.1515Z" fill="black"/>
<path d="M77.8029 30.6055L65.282 28.7862L59.6825 17.4403C57.6734 13.3693 51.8648 13.371 49.8565 17.4403L44.257 28.7862L42.0356 29.1089C41.2887 29.2174 40.7711 29.911 40.8796 30.6578C40.9881 31.4047 41.6809 31.9226 42.4285 31.8138L45.3609 31.3878C45.8059 31.323 46.1908 31.0435 46.3898 30.6402L52.3074 18.6501C53.3158 16.607 56.2215 16.6037 57.2315 18.6501L63.1491 30.6402C63.3481 31.0435 63.7329 31.3232 64.178 31.3878L77.4098 33.3104C79.6647 33.6381 80.5653 36.4005 78.9314 37.9935L69.3567 47.3266C69.0345 47.6405 68.8876 48.0929 68.9637 48.5362L71.2239 61.7148C71.6096 63.9646 69.2563 65.6687 67.2402 64.6089L55.4052 58.3869C55.0071 58.1775 54.5314 58.1775 54.1332 58.3869L52.532 59.2287C51.8639 59.58 51.607 60.4062 51.9584 61.0743C52.3096 61.7424 53.1359 61.9992 53.804 61.648L54.7693 61.1404L65.9686 67.0282C69.975 69.1346 74.6862 65.7321 73.918 61.2525L71.7791 48.7822L80.8394 39.9506C84.0902 36.7816 82.2934 31.2581 77.8029 30.6055Z" fill="black"/>
</g>
<defs>
<clipPath id="clip0_58_600">
<rect width="82" height="82" fill="white" transform="translate(0.5)"/>
</clipPath>
</defs>
</svg>
