<svg width="55" height="55" viewBox="0 0 55 55" fill="none" xmlns="http://www.w3.org/2000/svg">
<path d="M51.6415 0.5H3.22767C1.68774 0.5 0.43457 1.75317 0.43457 3.2931V42.3966V51.7069C0.43457 53.2468 1.68774 54.5 3.22767 54.5H51.6415C53.1814 54.5 54.4346 53.2468 54.4346 51.7069V42.3966V3.2931C54.4346 1.75317 53.1814 0.5 51.6415 0.5ZM52.5725 51.7069C52.5725 52.2208 52.1554 52.6379 51.6415 52.6379H3.22767C2.71374 52.6379 2.29664 52.2208 2.29664 51.7069V43.3276H5.08974H42.3311H49.7794H52.5725V51.7069ZM40.0836 41.4655H7.33726L23.7104 25.0923L34.2246 35.6065L40.0836 41.4655ZM36.1993 34.9483L38.607 32.5406L47.5319 41.4655H42.7166L36.1993 34.9483ZM52.5725 41.4655H50.1648L39.2652 30.5659C38.9012 30.2019 38.3128 30.2019 37.9487 30.5659L34.8828 33.6318L24.3687 23.1176C24.0046 22.7536 23.4162 22.7536 23.0522 23.1176L4.70429 41.4655H2.29664V3.2931C2.29664 2.77917 2.71374 2.36207 3.22767 2.36207H51.6415C52.1554 2.36207 52.5725 2.77917 52.5725 3.2931V41.4655Z" fill="#292D32"/>
</svg>
